<svg id="Layer_1" data-name="Layer 1" xmlns="http://www.w3.org/2000/svg" viewBox="0 0 44.75 6.5"><defs><style>.cls-1{fill:#ffffff;}.cls-2{fill:#fff;}</style></defs><title>alpha</title><polyline class="cls-1" points="7 6 7 2 8.75 2 8.75 5 10 5 10 3 11 3 11 5 12.25 5 12.25 2 14 2 14 6 13.5 6 13.5 6.5 11 6.5 11 6 10 6 10 6.5 7.5 6.5 7.5 6"/><polygon class="cls-1" points="18.75 5.5 18.75 6.5 15 6.5 15 5.5 16 5.5 16 3 15 3 15 2 17.75 2 17.75 5.5 18.75 5.5"/><rect class="cls-1" x="16" width="1.75" height="1"/><polyline class="cls-1" points="19.75 2 21.5 2 21.5 2.5 22 2.5 22 2 24 2 24 2.5 24.5 2.5 24.5 3.5 23.5 3.5 23.5 3 22.5 3 22.5 3.5 21.5 3.5 21.5 6.5 19.75 6.5"/><path class="cls-1" d="M33,8H30V7.5h3V7h.5V5H33V4.5H28.75V5h-.5V8.5h.5V9H33ZM30,6.5v-1h1.75v1Z" transform="translate(-2.75 -2.5)"/><path class="cls-1" d="M40,9V2.5H38.25v2H35V5h-.5V8.5H35V9ZM36.25,8V5.5h2V8Z" transform="translate(-2.75 -2.5)"/><rect class="cls-1" x="38.75" y="5.5" width="6" height="1"/><polygon class="cls-1" points="5.5 3 5.5 3.5 5 3.5 5 4 4.5 4 4.5 4.5 4 4.5 4 5 3.5 5 3.5 5.5 3 5.5 3 6 2.5 6 2.5 6.5 0 6.5 0 6 0.5 6 0.5 5.5 1 5.5 1 5 1.5 5 1.5 4.5 2 4.5 2 4 2.5 4 2.5 3.5 3 3.5 3 3 2.5 3 2.5 2.5 2 2.5 2 2 1.5 2 1.5 1.5 1 1.5 1 1 0.5 1 0.5 0.5 0 0.5 0 0 2.5 0 2.5 0.5 3 0.5 3 1 3.5 1 3.5 1.5 4 1.5 4 2 4.5 2 4.5 2.5 5 2.5 5 3 5.5 3"/><path class="cls-2" d="M2.77,4.25" transform="translate(-2.75 -2.5)"/><path class="cls-2" d="M3.27,4.75" transform="translate(-2.75 -2.5)"/><path class="cls-2" d="M3.77,5.25" transform="translate(-2.75 -2.5)"/><path class="cls-2" d="M4.27,5.75" transform="translate(-2.75 -2.5)"/></svg>
